<svg width="522.9793701171875px" height="142.39999999999998px" xmlns="http://www.w3.org/2000/svg" viewBox="-11.48968505859375 3.8000000000000114 522.9793701171875 142.39999999999998" style="background: rgba(0, 0, 0, 0);" preserveAspectRatio="xMidYMid"><defs><filter id="editing-vr"><feFlood flood-color="#f00" flood-opacity="0.7" result="c1"></feFlood><feFlood flood-color="#0000ff" flood-opacity="0.7" result="c3"></feFlood><feComposite operator="in" in="c1" in2="SourceAlpha" result="text-c1"></feComposite><feComposite operator="in" in="c3" in2="SourceAlpha" result="text-c3"></feComposite><feOffset in="text-c1" dx="5" dy="-1" result="text1"></feOffset><feOffset in="text-c3" dx="-5" dy="1" result="text3"></feOffset><feBlend in="SourceGraphic" in2="text1" mode="multiply" result="text4"></feBlend><feBlend in="text4" in2="text3" mode="multiply"></feBlend></filter></defs><g filter="url(#editing-vr)"><g transform="translate(64.61217224597931, 98.90500068664551)"><path d="M3.53-46.97L3.53-46.97L3.53-46.97Q7.44-46.56 20.97-46.56L20.97-46.56L20.97-46.56Q28.09-46.56 34.34-46.97L34.34-46.97L34.34-46.97Q35.03-46.50 37-40.88L37-40.88L37-40.88Q38.97-35.25 38.97-34.16L38.97-34.16L38.97-34.16Q38.97-33.94 38.73-33.55L38.73-33.55L38.73-33.55Q38.50-33.16 38.02-32.70L38.02-32.70L38.02-32.70Q37.53-32.25 36.61-31.94L36.61-31.94L36.61-31.94Q35.69-31.63 34.50-31.63L34.50-31.63L34.50-31.63Q33.84-31.63 33.02-33.50L33.02-33.50L33.02-33.50Q32.19-35.38 31.34-37.86L31.34-37.86L31.34-37.86Q30.50-40.34 30.16-40.97L30.16-40.97L30.16-40.97Q28.09-40.97 23.27-40.95L23.27-40.95L23.27-40.95Q18.44-40.94 15.63-40.94L15.63-40.94L15.63-40.94Q15.16-40.94 14.91-40.81L14.91-40.81L14.91-40.81Q14.66-40.69 14.61-40.55L14.61-40.55L14.61-40.55Q14.56-40.41 14.56-40.19L14.56-40.19L14.56-27.41L14.56-27.41Q16.38-28.03 19.05-28.53L19.05-28.53L19.05-28.53Q21.72-29.03 23.94-29.03L23.94-29.03L23.94-29.03Q29-29.03 29-25.03L29-25.03L29-25.03Q29-23.28 27.80-22.11L27.80-22.11L27.80-22.11Q26.59-20.94 24.97-20.94L24.97-20.94L24.97-20.94Q22.75-23.81 19.16-23.81L19.16-23.81L19.16-23.81Q16.94-23.81 14.56-23.28L14.56-23.28L14.56-8.28L14.56-8.28Q14.56-7.81 14.61-7.55L14.61-7.55L14.61-7.55Q14.66-7.28 14.83-6.94L14.83-6.94L14.83-6.94Q15-6.59 15.44-6.42L15.44-6.42L15.44-6.42Q15.88-6.25 16.56-6.25L16.56-6.25L16.56-6.25Q18-6.25 19.03-5.88L19.03-5.88L19.03-5.88Q20.06-5.50 20.06-4.75L20.06-4.75L20.06-4.75Q20.06-3.13 19.73-1.64L19.73-1.64L19.73-1.64Q19.41-0.16 18.72 0.34L18.72 0.34L18.72 0.34Q14.25 0 11 0L11 0L11 0Q7.94 0 3.53 0.34L3.53 0.34L3.53 0.34Q2.69-0.16 2.28-1.66L2.28-1.66L2.28-1.66Q1.88-3.16 1.88-4.75L1.88-4.75L1.88-4.75Q1.88-5.50 2.91-5.88L2.91-5.88L2.91-5.88Q3.94-6.25 5.38-6.25L5.38-6.25L5.38-6.25Q6.59-6.25 6.97-6.77L6.97-6.77L6.97-6.77Q7.34-7.28 7.34-8.22L7.34-8.22L7.34-38.41L7.34-38.41Q7.34-39.34 6.97-39.86L6.97-39.86L6.97-39.86Q6.59-40.38 5.38-40.38L5.38-40.38L5.38-40.38Q1.88-40.38 1.88-42L1.88-42L1.88-42Q1.88-43.53 2.28-45.02L2.28-45.02L2.28-45.02Q2.69-46.50 3.53-46.97ZM60.13-4.25L60.13-4.25L60.13-4.25Q57.84-1.84 54.36-0.50L54.36-0.50L54.36-0.50Q50.88 0.84 47.28 0.84L47.28 0.84L47.28 0.84Q42.81 0.84 39.91-1.53L39.91-1.53L39.91-1.53Q37-3.91 37-8.41L37-8.41L37-8.41Q37-13.22 41.66-15.66L41.66-15.66L41.66-15.66Q45.16-17.53 53.66-18.91L53.66-18.91L53.66-18.91Q55.25-19.19 58.84-19.72L58.84-19.72L58.84-19.72Q58.84-25.03 57.50-27.03L57.50-27.03L57.50-27.03Q56.16-29.03 52.34-29.03L52.34-29.03L52.34-29.03Q49.56-29.03 46.16-27.78L46.16-27.78L46.16-27.78Q42.75-26.53 40.72-24.31L40.72-24.31L40.72-24.31Q38.19-26.44 38.19-28.47L38.19-28.47L38.19-28.47Q38.19-30.22 40.59-31.58L40.59-31.58L40.59-31.58Q43-32.94 46.27-33.58L46.27-33.58L46.27-33.58Q49.53-34.22 52.81-34.22L52.81-34.22L52.81-34.22Q55.91-34.22 58.23-33.45L58.23-33.45L58.23-33.45Q60.56-32.69 62.34-30.94L62.34-30.94L62.34-30.94Q64.13-29.19 65.05-26.13L65.05-26.13L65.05-26.13Q65.97-23.06 65.97-18.69L65.97-18.69L65.97-8.69L65.97-8.69Q65.97-7.41 66.17-6.77L66.17-6.77L66.17-6.77Q66.38-6.13 66.63-5.98L66.63-5.98L66.63-5.98Q66.88-5.84 67.44-5.78L67.44-5.78L67.44-5.78Q68.41-5.69 68.88-5.61L68.88-5.61L68.88-5.61Q69.34-5.53 69.97-5.38L69.97-5.38L69.97-5.38Q70.59-5.22 70.86-4.97L70.86-4.97L70.86-4.97Q71.13-4.72 71.13-4.34L71.13-4.34L71.13-4.34Q71.13-0.66 70.09 0.25L70.09 0.25L70.09 0.25Q68.59 0 66.19 0L66.19 0L66.19 0Q64 0 62.13 0.22L62.13 0.22L62.13 0.22Q61.91 0.06 61.58-0.22L61.58-0.22L61.58-0.22Q61.25-0.50 60.69-1.66L60.69-1.66L60.69-1.66Q60.13-2.81 60.13-4.25ZM48.72-4.72L48.72-4.72L48.72-4.72Q51.56-4.72 54.88-6.30L54.88-6.30L54.88-6.30Q58.19-7.88 58.88-9.16L58.88-9.16L58.88-14.69L58.88-14.69Q50.34-13.16 47.36-11.94L47.36-11.94L47.36-11.94Q44.38-10.72 44.38-8.50L44.38-8.50L44.38-8.50Q44.38-4.72 48.72-4.72ZM101.72-8.28L101.72-8.28L101.72-8.28Q101.72-5.13 99.80-3.05L99.80-3.05L99.80-3.05Q97.88-0.97 94.72-0.06L94.72-0.06L94.72-0.06Q91.56 0.84 87.25 0.84L87.25 0.84L87.25 0.84Q80.63 0.84 76.89-1.06L76.89-1.06L76.89-1.06Q73.16-2.97 73.16-6.91L73.16-6.91L73.16-6.91Q73.16-11.38 78.63-11.38L78.63-11.38L78.63-11.38Q79.50-11.38 79.78-11.03L79.78-11.03L79.78-11.03Q80.06-10.69 80.06-9.72L80.06-9.72L80.06-5.47L80.06-5.47Q81.22-4.84 83.48-4.50L83.48-4.50L83.48-4.50Q85.75-4.16 88.06-4.16L88.06-4.16L88.06-4.16Q90.81-4.16 92.61-5.30L92.61-5.30L92.61-5.30Q94.41-6.44 94.41-8.44L94.41-8.44L94.41-8.44Q94.41-9.84 93.50-10.95L93.50-10.95L93.50-10.95Q92.59-12.06 91.13-12.75L91.13-12.75L91.13-12.75Q89.66-13.44 87.77-14.14L87.77-14.14L87.77-14.14Q85.88-14.84 83.92-15.44L83.92-15.44L83.92-15.44Q81.97-16.03 80.08-16.94L80.08-16.94L80.08-16.94Q78.19-17.84 76.72-18.91L76.72-18.91L76.72-18.91Q75.25-19.97 74.34-21.69L74.34-21.69L74.34-21.69Q73.44-23.41 73.44-25.56L73.44-25.56L73.44-25.56Q73.44-28.34 75.50-30.38L75.50-30.38L75.50-30.38Q77.56-32.41 80.55-33.31L80.55-33.31L80.55-33.31Q83.53-34.22 86.94-34.22L86.94-34.22L86.94-34.22Q100.94-34.22 100.94-26.09L100.94-26.09L100.94-26.09Q100.94-25.59 100.77-25.03L100.77-25.03L100.77-25.03Q100.59-24.47 100.11-23.72L100.11-23.72L100.11-23.72Q99.63-22.97 98.48-22.48L98.48-22.48L98.48-22.48Q97.34-22 95.69-22L95.69-22L95.69-22Q95.38-22 95.17-22.06L95.17-22.06L95.17-22.06Q94.97-22.13 94.86-22.20L94.86-22.20L94.86-22.20Q94.75-22.28 94.67-22.48L94.67-22.48L94.67-22.48Q94.59-22.69 94.58-22.78L94.58-22.78L94.58-22.78Q94.56-22.88 94.52-23.20L94.52-23.20L94.52-23.20Q94.47-23.53 94.47-23.66L94.47-23.66L94.03-28.03L94.03-28.03Q93.59-28.47 91.33-29L91.33-29L91.33-29Q89.06-29.53 87.44-29.53L87.44-29.53L87.44-29.53Q84.25-29.53 82.70-28.34L82.70-28.34L82.70-28.34Q81.16-27.16 81.16-25.34L81.16-25.34L81.16-25.34Q81.16-24.03 82.30-23.03L82.30-23.03L82.30-23.03Q83.44-22.03 85.25-21.33L85.25-21.33L85.25-21.33Q87.06-20.63 89.25-19.94L89.25-19.94L89.25-19.94Q91.44-19.25 93.63-18.30L93.63-18.30L93.63-18.30Q95.81-17.34 97.63-16.13L97.63-16.13L97.63-16.13Q99.44-14.91 100.58-12.89L100.58-12.89L100.58-12.89Q101.72-10.88 101.72-8.28ZM116-42.13L116-42.13L116-28.91L116-28.91Q118.22-31.25 121.31-32.75L121.31-32.75L121.31-32.75Q124.41-34.25 127.94-34.25L127.94-34.25L127.94-34.25Q129.97-34.25 131.67-33.56L131.67-33.56L131.67-33.56Q133.38-32.88 134.80-31.44L134.80-31.44L134.80-31.44Q136.22-30 137.03-27.44L137.03-27.44L137.03-27.44Q137.84-24.88 137.84-21.41L137.84-21.41L137.84-8.69L137.84-8.69Q137.84-5.72 139.41-5.59L139.41-5.59L139.41-5.59Q139.66-5.56 140.11-5.53L140.11-5.53L140.11-5.53Q140.56-5.50 140.83-5.47L140.83-5.47L140.83-5.47Q141.09-5.44 141.47-5.39L141.47-5.39L141.47-5.39Q141.84-5.34 142.06-5.30L142.06-5.30L142.06-5.30Q142.28-5.25 142.58-5.17L142.58-5.17L142.58-5.17Q142.88-5.09 143.03-5L143.03-5L143.03-5Q143.19-4.91 143.34-4.78L143.34-4.78L143.34-4.78Q143.50-4.66 143.56-4.48L143.56-4.48L143.56-4.48Q143.63-4.31 143.63-4.09L143.63-4.09L143.63-4.09Q143.63-0.66 142.28 0.25L142.28 0.25L142.28 0.25Q139.63 0 137.09 0L137.09 0L137.09 0Q135.81 0 134.22 0.13L134.22 0.13L134.22 0.13Q132.63 0.25 131.81 0.25L131.81 0.25L131.81 0.25Q131.47 0.25 131.27 0.14L131.27 0.14L131.27 0.14Q131.06 0.03 130.91-0.47L130.91-0.47L130.91-0.47Q130.75-0.97 130.75-1.91L130.75-1.91L130.75-20.84L130.75-20.84Q130.75-24.91 129.36-26.80L129.36-26.80L129.36-26.80Q127.97-28.69 125.69-28.69L125.69-28.69L125.69-28.69Q123.50-28.69 120.89-27.38L120.89-27.38L120.89-27.38Q118.28-26.06 116-24L116-24L116-7.84L116-7.84Q116-7.38 116.05-7.11L116.05-7.11L116.05-7.11Q116.09-6.84 116.27-6.50L116.27-6.50L116.27-6.50Q116.44-6.16 116.88-5.98L116.88-5.98L116.88-5.98Q117.31-5.81 118-5.81L118-5.81L118-5.81Q119.19-5.81 120.03-5.44L120.03-5.44L120.03-5.44Q120.88-5.06 120.88-4.31L120.88-4.31L120.88-4.31Q120.88-0.66 119.84 0.25L119.84 0.25L119.84 0.25Q116.91 0 112.63 0L112.63 0L112.63 0Q108.09 0 105.09 0.25L105.09 0.25L105.09 0.25Q104.06-0.69 104.06-4.31L104.06-4.31L104.06-4.31Q104.06-5.06 104.91-5.44L104.91-5.44L104.91-5.44Q105.75-5.81 106.94-5.81L106.94-5.81L106.94-5.81Q108.16-5.81 108.53-6.33L108.53-6.33L108.53-6.33Q108.91-6.84 108.91-7.78L108.91-7.78L108.91-37.78L108.91-37.78Q108.91-39.44 107.95-40.13L107.95-40.13L107.95-40.13Q107-40.81 104.28-40.94L104.28-40.94L104.28-40.94Q103.88-41.03 103.77-41.34L103.77-41.34L103.77-41.34Q103.66-41.66 103.66-42.69L103.66-42.69L103.66-42.69Q103.66-44.28 104-45.50L104-45.50L104-45.50Q104.34-46.72 104.69-46.91L104.69-46.91L104.69-46.91Q107.28-46.56 109.66-46.56L109.66-46.56L109.66-46.56Q111.06-46.56 112.63-46.73L112.63-46.73L112.63-46.73Q114.19-46.91 114.28-46.91L114.28-46.91L114.28-46.91Q115.38-46.91 115.70-46.36L115.70-46.36L115.70-46.36Q116.03-45.81 116.03-43.84L116.03-43.84L116.03-43.84Q116.03-43.63 116.02-43.05L116.02-43.05L116.02-43.05Q116-42.47 116-42.13ZM163.78-46.97L163.78-46.97L163.78-46.97Q167.69-46.56 181.22-46.56L181.22-46.56L181.22-46.56Q188.34-46.56 194.59-46.97L194.59-46.97L194.59-46.97Q195.28-46.50 197.25-40.88L197.25-40.88L197.25-40.88Q199.22-35.25 199.22-34.16L199.22-34.16L199.22-34.16Q199.22-33.94 198.98-33.55L198.98-33.55L198.98-33.55Q198.75-33.16 198.27-32.70L198.27-32.70L198.27-32.70Q197.78-32.25 196.86-31.94L196.86-31.94L196.86-31.94Q195.94-31.63 194.75-31.63L194.75-31.63L194.75-31.63Q194.09-31.63 193.27-33.50L193.27-33.50L193.27-33.50Q192.44-35.38 191.59-37.86L191.59-37.86L191.59-37.86Q190.75-40.34 190.41-40.97L190.41-40.97L190.41-40.97Q188.34-40.97 183.52-40.95L183.52-40.95L183.52-40.95Q178.69-40.94 175.88-40.94L175.88-40.94L175.88-40.94Q175.41-40.94 175.16-40.81L175.16-40.81L175.16-40.81Q174.91-40.69 174.86-40.55L174.86-40.55L174.86-40.55Q174.81-40.41 174.81-40.19L174.81-40.19L174.81-27.41L174.81-27.41Q176.63-28.03 179.30-28.53L179.30-28.53L179.30-28.53Q181.97-29.03 184.19-29.03L184.19-29.03L184.19-29.03Q189.25-29.03 189.25-25.03L189.25-25.03L189.25-25.03Q189.25-23.28 188.05-22.11L188.05-22.11L188.05-22.11Q186.84-20.94 185.22-20.94L185.22-20.94L185.22-20.94Q183-23.81 179.41-23.81L179.41-23.81L179.41-23.81Q177.19-23.81 174.81-23.28L174.81-23.28L174.81-8.28L174.81-8.28Q174.81-7.81 174.86-7.55L174.86-7.55L174.86-7.55Q174.91-7.28 175.08-6.94L175.08-6.94L175.08-6.94Q175.25-6.59 175.69-6.42L175.69-6.42L175.69-6.42Q176.13-6.25 176.81-6.25L176.81-6.25L176.81-6.25Q178.25-6.25 179.28-5.88L179.28-5.88L179.28-5.88Q180.31-5.50 180.31-4.75L180.31-4.75L180.31-4.75Q180.31-3.13 179.98-1.64L179.98-1.64L179.98-1.64Q179.66-0.16 178.97 0.34L178.97 0.34L178.97 0.34Q174.50 0 171.25 0L171.25 0L171.25 0Q168.19 0 163.78 0.34L163.78 0.34L163.78 0.34Q162.94-0.16 162.53-1.66L162.53-1.66L162.53-1.66Q162.13-3.16 162.13-4.75L162.13-4.75L162.13-4.75Q162.13-5.50 163.16-5.88L163.16-5.88L163.16-5.88Q164.19-6.25 165.63-6.25L165.63-6.25L165.63-6.25Q166.84-6.25 167.22-6.77L167.22-6.77L167.22-6.77Q167.59-7.28 167.59-8.22L167.59-8.22L167.59-38.41L167.59-38.41Q167.59-39.34 167.22-39.86L167.22-39.86L167.22-39.86Q166.84-40.38 165.63-40.38L165.63-40.38L165.63-40.38Q162.13-40.38 162.13-42L162.13-42L162.13-42Q162.13-43.53 162.53-45.02L162.53-45.02L162.53-45.02Q162.94-46.50 163.78-46.97ZM234-31.44L234-31.44L234-8.53L234-8.53Q234-7.72 234.03-7.38L234.03-7.38L234.03-7.38Q234.06-7.03 234.20-6.61L234.20-6.61L234.20-6.61Q234.34-6.19 234.67-6.05L234.67-6.05L234.67-6.05Q235-5.91 235.56-5.80L235.56-5.80L235.56-5.80Q236.13-5.69 237.06-5.69L237.06-5.69L237.06-5.69Q238.47-5.69 238.86-5.34L238.86-5.34L238.86-5.34Q239.25-5 239.25-3.94L239.25-3.94L239.25-3.94Q239.25-2.38 238.89-1.17L238.89-1.17L238.89-1.17Q238.53 0.03 238.22 0.25L238.22 0.25L238.22 0.25Q235.94 0 234 0L234 0L234 0Q232.72 0 231.33 0.13L231.33 0.13L231.33 0.13Q229.94 0.25 229.63 0.25L229.63 0.25L229.63 0.25Q228.38 0.25 228.11-0.50L228.11-0.50L228.11-0.50Q227.84-1.25 227.84-4.50L227.84-4.50L227.84-4.50Q225.66-1.97 222.58-0.56L222.58-0.56L222.58-0.56Q219.50 0.84 216.31 0.84L216.31 0.84L216.31 0.84Q214 0.84 211.98 0.08L211.98 0.08L211.98 0.08Q209.97-0.69 208.34-2.19L208.34-2.19L208.34-2.19Q206.72-3.69 205.78-6.22L205.78-6.22L205.78-6.22Q204.84-8.75 204.84-12L204.84-12L204.84-24.53L204.84-24.53Q204.84-27.50 203.28-27.63L203.28-27.63L203.28-27.63Q203.03-27.66 202.58-27.69L202.58-27.69L202.58-27.69Q202.13-27.72 201.86-27.75L201.86-27.75L201.86-27.75Q201.59-27.78 201.22-27.83L201.22-27.83L201.22-27.83Q200.84-27.88 200.63-27.92L200.63-27.92L200.63-27.92Q200.41-27.97 200.11-28.05L200.11-28.05L200.11-28.05Q199.81-28.13 199.66-28.22L199.66-28.22L199.66-28.22Q199.50-28.31 199.34-28.44L199.34-28.44L199.34-28.44Q199.19-28.56 199.13-28.73L199.13-28.73L199.13-28.73Q199.06-28.91 199.06-29.13L199.06-29.13L199.06-29.13Q199.06-32.75 200.09-33.69L200.09-33.69L200.09-33.69Q203.03-33.34 205.50-33.34L205.50-33.34L205.50-33.34Q207.22-33.34 209.02-33.52L209.02-33.52L209.02-33.52Q210.81-33.69 210.88-33.69L210.88-33.69L210.88-33.69Q211.94-33.69 211.94-31.44L211.94-31.44L211.94-11.63L211.94-11.63Q211.94-8.19 213.72-6.47L213.72-6.47L213.72-6.47Q215.50-4.75 218.28-4.75L218.28-4.75L218.28-4.75Q220.66-4.75 223.02-6L223.02-6L223.02-6Q225.38-7.25 226.91-9.41L226.91-9.41L226.91-24.53L226.91-24.53Q226.91-27.50 225.34-27.63L225.34-27.63L225.34-27.63Q225.09-27.66 224.64-27.69L224.64-27.69L224.64-27.69Q224.19-27.72 223.92-27.75L223.92-27.75L223.92-27.75Q223.66-27.78 223.28-27.83L223.28-27.83L223.28-27.83Q222.91-27.88 222.69-27.92L222.69-27.92L222.69-27.92Q222.47-27.97 222.17-28.05L222.17-28.05L222.17-28.05Q221.88-28.13 221.72-28.22L221.72-28.22L221.72-28.22Q221.56-28.31 221.41-28.44L221.41-28.44L221.41-28.44Q221.25-28.56 221.19-28.73L221.19-28.73L221.19-28.73Q221.13-28.91 221.13-29.13L221.13-29.13L221.13-29.13Q221.13-32.78 222.16-33.69L222.16-33.69L222.16-33.69Q225.09-33.34 227.56-33.34L227.56-33.34L227.56-33.34Q229.63-33.34 231.77-33.52L231.77-33.52L231.77-33.52Q233.91-33.69 233.97-33.69L233.97-33.69L233.97-33.69Q234-33.69 234-31.44ZM269.78-8.28L269.78-8.28L269.78-8.28Q269.78-5.13 267.86-3.05L267.86-3.05L267.86-3.05Q265.94-0.97 262.78-0.06L262.78-0.06L262.78-0.06Q259.63 0.84 255.31 0.84L255.31 0.84L255.31 0.84Q248.69 0.84 244.95-1.06L244.95-1.06L244.95-1.06Q241.22-2.97 241.22-6.91L241.22-6.91L241.22-6.91Q241.22-11.38 246.69-11.38L246.69-11.38L246.69-11.38Q247.56-11.38 247.84-11.03L247.84-11.03L247.84-11.03Q248.13-10.69 248.13-9.72L248.13-9.72L248.13-5.47L248.13-5.47Q249.28-4.84 251.55-4.50L251.55-4.50L251.55-4.50Q253.81-4.16 256.13-4.16L256.13-4.16L256.13-4.16Q258.88-4.16 260.67-5.30L260.67-5.30L260.67-5.30Q262.47-6.44 262.47-8.44L262.47-8.44L262.47-8.44Q262.47-9.84 261.56-10.95L261.56-10.95L261.56-10.95Q260.66-12.06 259.19-12.75L259.19-12.75L259.19-12.75Q257.72-13.44 255.83-14.14L255.83-14.14L255.83-14.14Q253.94-14.84 251.98-15.44L251.98-15.44L251.98-15.44Q250.03-16.03 248.14-16.94L248.14-16.94L248.14-16.94Q246.25-17.84 244.78-18.91L244.78-18.91L244.78-18.91Q243.31-19.97 242.41-21.69L242.41-21.69L242.41-21.69Q241.50-23.41 241.50-25.56L241.50-25.56L241.50-25.56Q241.50-28.34 243.56-30.38L243.56-30.38L243.56-30.38Q245.63-32.41 248.61-33.31L248.61-33.31L248.61-33.31Q251.59-34.22 255-34.22L255-34.22L255-34.22Q269-34.22 269-26.09L269-26.09L269-26.09Q269-25.59 268.83-25.03L268.83-25.03L268.83-25.03Q268.66-24.47 268.17-23.72L268.17-23.72L268.17-23.72Q267.69-22.97 266.55-22.48L266.55-22.48L266.55-22.48Q265.41-22 263.75-22L263.75-22L263.75-22Q263.44-22 263.23-22.06L263.23-22.06L263.23-22.06Q263.03-22.13 262.92-22.20L262.92-22.20L262.92-22.20Q262.81-22.28 262.73-22.48L262.73-22.48L262.73-22.48Q262.66-22.69 262.64-22.78L262.64-22.78L262.64-22.78Q262.63-22.88 262.58-23.20L262.58-23.20L262.58-23.20Q262.53-23.53 262.53-23.66L262.53-23.66L262.09-28.03L262.09-28.03Q261.66-28.47 259.39-29L259.39-29L259.39-29Q257.13-29.53 255.50-29.53L255.50-29.53L255.50-29.53Q252.31-29.53 250.77-28.34L250.77-28.34L250.77-28.34Q249.22-27.16 249.22-25.34L249.22-25.34L249.22-25.34Q249.22-24.03 250.36-23.03L250.36-23.03L250.36-23.03Q251.50-22.03 253.31-21.33L253.31-21.33L253.31-21.33Q255.13-20.63 257.31-19.94L257.31-19.94L257.31-19.94Q259.50-19.25 261.69-18.30L261.69-18.30L261.69-18.30Q263.88-17.34 265.69-16.13L265.69-16.13L265.69-16.13Q267.50-14.91 268.64-12.89L268.64-12.89L268.64-12.89Q269.78-10.88 269.78-8.28ZM279.16-38.91L279.16-38.91L279.16-38.91Q278.41-38.91 277.63-39.05L277.63-39.05L277.63-39.05Q276.84-39.19 275.92-39.56L275.92-39.56L275.92-39.56Q275-39.94 274.42-40.75L274.42-40.75L274.42-40.75Q273.84-41.56 273.84-42.69L273.84-42.69L273.84-42.69Q273.84-46.53 279.03-46.53L279.03-46.53L279.03-46.53Q280.50-46.53 281.52-46.16L281.52-46.16L281.52-46.16Q282.53-45.78 283.02-45.16L283.02-45.16L283.02-45.16Q283.50-44.53 283.69-43.94L283.69-43.94L283.69-43.94Q283.88-43.34 283.88-42.66L283.88-42.66L283.88-42.66Q283.88-41.25 283-40.34L283-40.34L283-40.34Q282.13-39.44 281.14-39.17L281.14-39.17L281.14-39.17Q280.16-38.91 279.16-38.91ZM284.31-30.63L284.31-30.63L284.31-7.84L284.31-7.84Q284.31-7.38 284.36-7.11L284.36-7.11L284.36-7.11Q284.41-6.84 284.58-6.50L284.58-6.50L284.58-6.50Q284.75-6.16 285.19-5.98L285.19-5.98L285.19-5.98Q285.63-5.81 286.31-5.81L286.31-5.81L286.31-5.81Q287.50-5.81 288.34-5.44L288.34-5.44L288.34-5.44Q289.19-5.06 289.19-4.31L289.19-4.31L289.19-4.31Q289.19-0.66 288.16 0.25L288.16 0.25L288.16 0.25Q285.34 0 281.28 0L281.28 0L281.28 0Q277.06 0 273.41 0.25L273.41 0.25L273.41 0.25Q272.38-0.69 272.38-4.31L272.38-4.31L272.38-4.31Q272.38-5.06 273.22-5.44L273.22-5.44L273.22-5.44Q274.06-5.81 275.25-5.81L275.25-5.81L275.25-5.81Q276.47-5.81 276.84-6.33L276.84-6.33L276.84-6.33Q277.22-6.84 277.22-7.78L277.22-7.78L277.22-24.56L277.22-24.56Q277.22-26.22 276.27-26.91L276.27-26.91L276.27-26.91Q275.31-27.59 272.59-27.72L272.59-27.72L272.59-27.72Q272.19-27.81 272.08-28.13L272.08-28.13L272.08-28.13Q271.97-28.44 271.97-29.47L271.97-29.47L271.97-29.47Q271.97-31.06 272.31-32.28L272.31-32.28L272.31-32.28Q272.66-33.50 273-33.69L273-33.69L273-33.69Q275.41-33.34 277.66-33.34L277.66-33.34L277.66-33.34Q279.16-33.34 280.81-33.52L280.81-33.52L280.81-33.52Q282.47-33.69 282.56-33.69L282.56-33.69L282.56-33.69Q283.66-33.69 283.98-33.14L283.98-33.14L283.98-33.14Q284.31-32.59 284.31-30.63ZM292.75-9.08L292.75-9.08L292.75-9.08Q291.25-12.50 291.25-16.72L291.25-16.72L291.25-16.72Q291.25-20.94 292.75-24.34L292.75-24.34L292.75-24.34Q294.25-27.75 296.75-29.86L296.75-29.86L296.75-29.86Q299.25-31.97 302.34-33.09L302.34-33.09L302.34-33.09Q305.44-34.22 308.81-34.22L308.81-34.22L308.81-34.22Q312.16-34.22 315.25-33.09L315.25-33.09L315.25-33.09Q318.34-31.97 320.83-29.86L320.83-29.86L320.83-29.86Q323.31-27.75 324.81-24.34L324.81-24.34L324.81-24.34Q326.31-20.94 326.31-16.72L326.31-16.72L326.31-16.72Q326.31-12.50 324.81-9.08L324.81-9.08L324.81-9.08Q323.31-5.66 320.83-3.53L320.83-3.53L320.83-3.53Q318.34-1.41 315.25-0.28L315.25-0.28L315.25-0.28Q312.16 0.84 308.81 0.84L308.81 0.84L308.81 0.84Q305.44 0.84 302.34-0.28L302.34-0.28L302.34-0.28Q299.25-1.41 296.75-3.53L296.75-3.53L296.75-3.53Q294.25-5.66 292.75-9.08ZM301.59-25.69L301.59-25.69L301.59-25.69Q298.56-22.47 298.56-16.72L298.56-16.72L298.56-16.72Q298.56-10.97 301.59-7.73L301.59-7.73L301.59-7.73Q304.63-4.50 308.75-4.50L308.75-4.50L308.75-4.50Q310.72-4.50 312.53-5.28L312.53-5.28L312.53-5.28Q314.34-6.06 315.80-7.55L315.80-7.55L315.80-7.55Q317.25-9.03 318.13-11.41L318.13-11.41L318.13-11.41Q319-13.78 319-16.72L319-16.72L319-16.72Q319-19.66 318.13-22.03L318.13-22.03L318.13-22.03Q317.25-24.41 315.80-25.88L315.80-25.88L315.80-25.88Q314.34-27.34 312.53-28.13L312.53-28.13L312.53-28.13Q310.72-28.91 308.75-28.91L308.75-28.91L308.75-28.91Q304.63-28.91 301.59-25.69ZM367.97 0.25L367.97 0.25L367.97 0.25Q364.94 0 362.50 0L362.50 0L362.50 0Q360.91 0 359.03 0.13L359.03 0.13L359.03 0.13Q357.16 0.25 356.56 0.25L356.56 0.25L356.56 0.25Q355.50 0.25 355.50-2.13L355.50-2.13L355.50-20.84L355.50-20.84Q355.50-24.91 354.19-26.80L354.19-26.80L354.19-26.80Q352.88-28.69 350.75-28.69L350.75-28.69L350.75-28.69Q348.56-28.69 345.95-27.45L345.95-27.45L345.95-27.45Q343.34-26.22 341.06-24.31L341.06-24.31L341.06-7.84L341.06-7.84Q341.06-7.38 341.11-7.11L341.11-7.11L341.11-7.11Q341.16-6.84 341.33-6.50L341.33-6.50L341.33-6.50Q341.50-6.16 341.94-5.98L341.94-5.98L341.94-5.98Q342.38-5.81 343.06-5.81L343.06-5.81L343.06-5.81Q344.25-5.81 345.09-5.44L345.09-5.44L345.09-5.44Q345.94-5.06 345.94-4.31L345.94-4.31L345.94-4.31Q345.94-0.66 344.91 0.25L344.91 0.25L344.91 0.25Q343 0 337.75 0L337.75 0L337.75 0Q332.50 0 330.16 0.25L330.16 0.25L330.16 0.25Q329.13-0.69 329.13-4.31L329.13-4.31L329.13-4.31Q329.13-5.06 329.97-5.44L329.97-5.44L329.97-5.44Q330.81-5.81 332-5.81L332-5.81L332-5.81Q333.22-5.81 333.59-6.33L333.59-6.33L333.59-6.33Q333.97-6.84 333.97-7.78L333.97-7.78L333.97-24.56L333.97-24.56Q333.97-26.22 333.02-26.91L333.02-26.91L333.02-26.91Q332.06-27.59 329.34-27.72L329.34-27.72L329.34-27.72Q328.94-27.81 328.83-28.13L328.83-28.13L328.83-28.13Q328.72-28.44 328.72-29.47L328.72-29.47L328.72-29.47Q328.72-31.06 329.06-32.28L329.06-32.28L329.06-32.28Q329.41-33.50 329.75-33.69L329.75-33.69L329.75-33.69Q331.81-33.34 333.78-33.34L333.78-33.34L333.78-33.34Q335.19-33.34 336.75-33.52L336.75-33.52L336.75-33.52Q338.31-33.69 338.41-33.69L338.41-33.69L338.41-33.69Q339.50-33.69 339.83-33.14L339.83-33.14L339.83-33.14Q340.16-32.59 340.16-30.63L340.16-30.63L340.16-30.63Q340.16-30.41 340.14-29.83L340.14-29.83L340.14-29.83Q340.13-29.25 340.13-28.91L340.13-28.91L340.13-28.91Q342.81-31.28 346.22-32.75L346.22-32.75L346.22-32.75Q349.63-34.22 352.78-34.22L352.78-34.22L352.78-34.22Q357.16-34.22 359.88-31.13L359.88-31.13L359.88-31.13Q362.59-28.03 362.59-21.41L362.59-21.41L362.59-7.97L362.59-7.97Q362.59-5.94 364.16-5.81L364.16-5.81L364.16-5.81Q364.47-5.78 364.98-5.75L364.98-5.75L364.98-5.75Q365.50-5.72 365.80-5.69L365.80-5.69L365.80-5.69Q366.09-5.66 366.53-5.61L366.53-5.61L366.53-5.61Q366.97-5.56 367.22-5.52L367.22-5.52L367.22-5.52Q367.47-5.47 367.80-5.39L367.80-5.39L367.80-5.39Q368.13-5.31 368.31-5.22L368.31-5.22L368.31-5.22Q368.50-5.13 368.67-5L368.67-5L368.67-5Q368.84-4.88 368.92-4.70L368.92-4.70L368.92-4.70Q369-4.53 369-4.31L369-4.31L369-4.31Q369-0.69 367.97 0.25Z" fill="#444"></path></g></g><style>text {
  font-size: 64px;
  font-family: Arial Black;
  dominant-baseline: central;
  text-anchor: middle;
}</style></svg>